<?xml version="1.0" encoding="UTF-8" standalone="no"?>
<!DOCTYPE svg PUBLIC "-//W3C//DTD SVG 1.1//EN" "http://www.w3.org/Graphics/SVG/1.1/DTD/svg11.dtd">
<svg width="100%" height="100%" viewBox="0 0 392 331" version="1.1" xmlns="http://www.w3.org/2000/svg" xmlns:xlink="http://www.w3.org/1999/xlink" xml:space="preserve" xmlns:serif="http://www.serif.com/" style="fill-rule:evenodd;clip-rule:evenodd;stroke-linejoin:round;stroke-miterlimit:2;">
    <g transform="matrix(1,0,0,1,-607,-17392)">
        <g transform="matrix(0.125481,-0.0336225,-0.0336225,-0.125481,528.911,17908.8)">
            <path d="M2485,3373C2412,3360 2254,3313 2205,3290C2109,3245 1995,3209 1928,3203C1859,3196 1799,3211 1708,3256C1647,3287 1640,3288 1640,3271C1640,3261 1659,3215 1682,3169C1735,3064 1841,2952 1909,2930C1933,2922 1954,2910 1957,2903C1973,2862 1806,2708 1669,2639C1580,2595 1516,2571 1401,2541C1343,2526 1295,2509 1293,2503C1289,2491 1400,2439 1502,2404C1544,2390 1612,2377 1663,2373C1711,2370 1750,2365 1750,2363C1750,2361 1732,2327 1711,2287C1672,2215 1642,2126 1620,2018C1596,1899 1610,1620 1640,1620C1643,1620 1655,1648 1665,1683C1691,1770 1738,1856 1782,1896C1841,1949 1845,1942 1846,1757C1847,1585 1857,1516 1906,1372C1966,1192 2104,979 2207,906C2248,877 2274,876 2252,903C2245,910 2220.09,956.264 2213,986C2202,1032.17 2186,1069 2186,1180C2185,1307 2205,1453 2223,1447C2228,1446 2325.42,1128.58 2660.46,948.82C2909.27,815.325 3144.86,793.308 3260.67,836.417C3286.67,846.095 3267.86,851.01 3256.42,854.512C2838.78,982.392 2813.64,1300.02 2815.54,1301.29C2827.54,1308.29 3095.28,1070.58 3417.25,1029.55C3509.94,1017.74 3600.64,1033.84 3687.74,1055.86C3858.66,1099.07 3970.91,1199.39 4006.31,1251.68C4013.11,1261.73 4017.82,1277.57 4011.73,1281.87C4004.13,1287.23 3983.84,1279.68 3977.24,1278.94C3882.26,1268.34 3685.65,1282.34 3584.96,1309.32C3415.98,1354.6 3361.92,1424.57 3306.84,1490.59C3219.31,1595.49 3149.81,1708.46 3086.56,1722.76C3054.91,1722.75 2998.88,1443.69 3205.04,1427.58C3456,1407.97 3884.37,1457.58 4098.51,1724.24C4299.62,1974.67 4312.52,2164.79 4338.95,2243.86C4340.32,2247.96 4353.07,2309.99 4341.82,2329.47C4330.58,2348.95 4301.32,2309.88 4296.08,2304.22C4064.26,2053.51 3595.69,1718.05 3030.62,2067.04C2658.34,2296.96 2712,2631 2726,2729C2733,2780 2766,2844 2802,2876C2877,2943 3003,2930 3119,2845C3153,2820 3182,2800 3185,2800C3196,2800 3189,2869 3170,2945C3083,3289 2845,3438 2485,3373Z" style="fill:#4F00FF;fill-rule:nonzero;"/>
        </g>
    </g>
</svg>
